<svg width="227" height="73" viewBox="0 0 227 73" fill="none" xmlns="http://www.w3.org/2000/svg">
<path d="M35.47 28.841C35.6106 28.7005 35.8012 28.6217 36 28.6217C36.1988 28.6217 36.3894 28.7005 36.53 28.841L45.22 37.531C45.2892 37.6026 45.372 37.6597 45.4635 37.699C45.555 37.7382 45.6535 37.7589 45.7531 37.7597C45.8526 37.7605 45.9514 37.7415 46.0435 37.7037C46.1357 37.666 46.2194 37.6102 46.2898 37.5398C46.3602 37.4693 46.4158 37.3856 46.4535 37.2934C46.4912 37.2012 46.5101 37.1024 46.5092 37.0028C46.5083 36.9032 46.4875 36.8048 46.4482 36.7134C46.4088 36.6219 46.3517 36.5391 46.28 36.47L37.591 27.78C37.3821 27.5711 37.134 27.4053 36.861 27.2922C36.5881 27.1792 36.2955 27.121 36 27.121C35.7045 27.121 35.4119 27.1792 35.139 27.2922C34.866 27.4053 34.6179 27.5711 34.409 27.78L25.719 36.47C25.6474 36.5392 25.5903 36.622 25.551 36.7135C25.5118 36.805 25.4911 36.9035 25.4903 37.003C25.4895 37.1026 25.5085 37.2014 25.5463 37.2935C25.584 37.3857 25.6398 37.4694 25.7102 37.5398C25.7807 37.6102 25.8644 37.6658 25.9566 37.7035C26.0488 37.7412 26.1476 37.7601 26.2472 37.7592C26.3467 37.7583 26.4451 37.7375 26.5366 37.6982C26.6281 37.6588 26.7108 37.6017 26.78 37.53L35.47 28.841Z" fill="#8E6B52"/>
<path d="M36 30.432L44.159 38.591C44.189 38.621 44.219 38.649 44.25 38.677V44.875C44.25 45.91 43.41 46.75 42.375 46.75H39C38.8011 46.75 38.6103 46.671 38.4697 46.5303C38.329 46.3897 38.25 46.1989 38.25 46V41.5C38.25 41.3011 38.171 41.1103 38.0303 40.9697C37.8897 40.829 37.6989 40.75 37.5 40.75H34.5C34.3011 40.75 34.1103 40.829 33.9697 40.9697C33.829 41.1103 33.75 41.3011 33.75 41.5V46C33.75 46.1989 33.671 46.3897 33.5303 46.5303C33.3897 46.671 33.1989 46.75 33 46.75H29.625C29.1277 46.75 28.6508 46.5525 28.2992 46.2008C27.9475 45.8492 27.75 45.3723 27.75 44.875V38.677C27.7811 38.6492 27.8115 38.6205 27.841 38.591L36 30.432Z" fill="#8E6B52"/>
<path d="M63.96 43.112C63.1813 43.112 62.4773 42.9787 61.848 42.712C61.2293 42.4453 60.7387 42.0613 60.376 41.56C60.0133 41.0587 59.8267 40.4667 59.816 39.784H62.216C62.248 40.2427 62.408 40.6053 62.696 40.872C62.9947 41.1387 63.4 41.272 63.912 41.272C64.4347 41.272 64.8453 41.1493 65.144 40.904C65.4427 40.648 65.592 40.3173 65.592 39.912C65.592 39.5813 65.4907 39.3093 65.288 39.096C65.0853 38.8827 64.8293 38.7173 64.52 38.6C64.2213 38.472 63.8053 38.3333 63.272 38.184C62.5467 37.9707 61.9547 37.7627 61.496 37.56C61.048 37.3467 60.6587 37.032 60.328 36.616C60.008 36.1893 59.848 35.624 59.848 34.92C59.848 34.2587 60.0133 33.6827 60.344 33.192C60.6747 32.7013 61.1387 32.328 61.736 32.072C62.3333 31.8053 63.016 31.672 63.784 31.672C64.936 31.672 65.8693 31.9547 66.584 32.52C67.3093 33.0747 67.7093 33.8533 67.784 34.856H65.32C65.2987 34.472 65.1333 34.1573 64.824 33.912C64.5253 33.656 64.1253 33.528 63.624 33.528C63.1867 33.528 62.8347 33.64 62.568 33.864C62.312 34.088 62.184 34.4133 62.184 34.84C62.184 35.1387 62.28 35.3893 62.472 35.592C62.6747 35.784 62.92 35.944 63.208 36.072C63.5067 36.1893 63.9227 36.328 64.456 36.488C65.1813 36.7013 65.7733 36.9147 66.232 37.128C66.6907 37.3413 67.0853 37.6613 67.416 38.088C67.7467 38.5147 67.912 39.0747 67.912 39.768C67.912 40.3653 67.7573 40.92 67.448 41.432C67.1387 41.944 66.6853 42.3547 66.088 42.664C65.4907 42.9627 64.7813 43.112 63.96 43.112ZM79.118 31.832V43H76.878V38.248H72.094V43H69.854V31.832H72.094V36.424H76.878V31.832H79.118ZM90.2028 31.832L86.4268 39.112V43H84.1868V39.112L80.3948 31.832H82.9228L85.3228 36.936L87.7068 31.832H90.2028ZM98.3426 40.872H93.8946L93.1586 43H90.8066L94.8226 31.816H97.4306L101.447 43H99.0786L98.3426 40.872ZM97.7346 39.08L96.1186 34.408L94.5026 39.08H97.7346ZM115.124 31.832V43H112.884V35.736L109.892 43H108.196L105.188 35.736V43H102.948V31.832H105.492L109.044 40.136L112.596 31.832H115.124ZM125.007 43.112C124.228 43.112 123.524 42.9787 122.895 42.712C122.276 42.4453 121.786 42.0613 121.423 41.56C121.06 41.0587 120.874 40.4667 120.863 39.784H123.263C123.295 40.2427 123.455 40.6053 123.743 40.872C124.042 41.1387 124.447 41.272 124.959 41.272C125.482 41.272 125.892 41.1493 126.191 40.904C126.49 40.648 126.639 40.3173 126.639 39.912C126.639 39.5813 126.538 39.3093 126.335 39.096C126.132 38.8827 125.876 38.7173 125.567 38.6C125.268 38.472 124.852 38.3333 124.319 38.184C123.594 37.9707 123.002 37.7627 122.543 37.56C122.095 37.3467 121.706 37.032 121.375 36.616C121.055 36.1893 120.895 35.624 120.895 34.92C120.895 34.2587 121.06 33.6827 121.391 33.192C121.722 32.7013 122.186 32.328 122.783 32.072C123.38 31.8053 124.063 31.672 124.831 31.672C125.983 31.672 126.916 31.9547 127.631 32.52C128.356 33.0747 128.756 33.8533 128.831 34.856H126.367C126.346 34.472 126.18 34.1573 125.871 33.912C125.572 33.656 125.172 33.528 124.671 33.528C124.234 33.528 123.882 33.64 123.615 33.864C123.359 34.088 123.231 34.4133 123.231 34.84C123.231 35.1387 123.327 35.3893 123.519 35.592C123.722 35.784 123.967 35.944 124.255 36.072C124.554 36.1893 124.97 36.328 125.503 36.488C126.228 36.7013 126.82 36.9147 127.279 37.128C127.738 37.3413 128.132 37.6613 128.463 38.088C128.794 38.5147 128.959 39.0747 128.959 39.768C128.959 40.3653 128.804 40.92 128.495 41.432C128.186 41.944 127.732 42.3547 127.135 42.664C126.538 42.9627 125.828 43.112 125.007 43.112ZM137.749 40.872H133.301L132.565 43H130.213L134.229 31.816H136.837L140.853 43H138.485L137.749 40.872ZM137.141 39.08L135.525 34.408L133.909 39.08H137.141ZM151.906 43H149.666L144.594 35.336V43H142.354V31.816H144.594L149.666 39.496V31.816H151.906V43ZM156.36 31.832V43H154.12V31.832H156.36ZM162.477 31.832C163.65 31.832 164.679 32.0613 165.565 32.52C166.461 32.9787 167.149 33.6347 167.629 34.488C168.119 35.3307 168.365 36.312 168.365 37.432C168.365 38.552 168.119 39.5333 167.629 40.376C167.149 41.208 166.461 41.8533 165.565 42.312C164.679 42.7707 163.65 43 162.477 43H158.573V31.832H162.477ZM162.397 41.096C163.57 41.096 164.477 40.776 165.117 40.136C165.757 39.496 166.077 38.5947 166.077 37.432C166.077 36.2693 165.757 35.3627 165.117 34.712C164.477 34.0507 163.57 33.72 162.397 33.72H160.813V41.096H162.397ZM179.306 31.832V43H177.066V38.248H172.282V43H170.042V31.832H172.282V36.424H177.066V31.832H179.306ZM190.39 31.832L186.614 39.112V43H184.374V39.112L180.582 31.832H183.11L185.51 36.936L187.894 31.832H190.39ZM198.53 40.872H194.082L193.346 43H190.994L195.01 31.816H197.618L201.634 43H199.266L198.53 40.872ZM197.922 39.08L196.306 34.408L194.69 39.08H197.922Z" fill="#8E6B52"/>
</svg>
